<svg xmlns="http://www.w3.org/2000/svg" xml:space="preserve" version="1.1" viewBox="0 0 1200.41 605.56" xmlns:xlink="http://www.w3.org/1999/xlink">
    <defs>
        <style type="text/css">
            <![CDATA[
                .fil0 {fill:#004f9f}
            ]]>
        </style>
    </defs>
    <g>
        <path class="fil0" d="M600.2 147.59c0,-59.89 98.4,-66.46 98.4,4.92l0 49.2 100.85 0 0 49.19 -199.25 0 0 -103.31zm-100.85 -7.38l0 110.69 -152.51 0 0 206.63c0,55.27 -98.4,70.74 -98.4,-14.76l0 -194.33 -248.44 0 0 103.32 147.59 0c0,95.54 -14.23,186.25 81.94,237.84 46.64,25.01 114.84,20.46 158.15,-12.51 19.8,-15.08 38.96,-37.06 48.48,-59.76 20.62,-49.17 13.99,-105.92 13.99,-165.57l49.2 0 0 243.52c0,5.67 1.71,7.38 7.38,7.38l86.09 0c5.67,0 7.38,-1.71 7.38,-7.38l0 -243.52 199.25 0 0 248.44 100.85 0 0 -248.44 300.11 0 0 -100.86 -300.11 0 0 -100.85c0,-64.52 98.4,-64.52 98.4,0l0 51.66 100.85 0c0,-62.9 6.21,-109.36 -44.82,-159.35 -41.01,-40.17 -108.72,-54.99 -164.27,-30.06 -7.41,3.33 -15.47,7.25 -22.68,11.75 -29.34,18.28 -65.87,64.74 -65.87,106.32 -8.7,-6.37 -2.24,1.94 -5.29,-9.46 -4.11,-15.36 -2.76,-19.05 -12.72,-38.94 -21.32,-42.55 -73.72,-81.97 -119.74,-81.97 -50.74,0 -82.26,4.83 -122.4,44.87 -19.82,19.76 -42.41,56.89 -42.41,95.34z"/>
    </g>
</svg>
