<svg xmlns="http://www.w3.org/2000/svg" xml:space="preserve" version="1.1" viewBox="0 0 2458.9 927.52"
    xmlns:xlink="http://www.w3.org/1999/xlink">
    <defs>
        <style type="text/css">
            <![CDATA[
    .fil3 {fill:#004F9F}
    .fil0 {fill:#2281AE}
    .fil2 {fill:#44ACBD}
    .fil1 {fill:#FEFEFE;fill-rule:nonzero}
   ]]>
        </style>
    </defs>
    <g>
        <g>
            <g>
                <polygon class="fil0" points="1229.45,0 1430.59,115.94 1631.74,231.88 1631.74,463.76 1631.74,695.64 1430.59,811.58 1229.45,927.52 1028.31,811.58 827.16,695.64 827.16,463.76 827.16,231.88 1028.31,115.94 "/>
                <path class="fil1" d="M1293.12 396.95c0,-39.18 -31.74,-70.92 -70.92,-70.92l-72.48 0 0 275.45 89.72 0c39.18,0 70.92,-31.73 70.92,-70.92l0 -14.49c0,-27.43 -15.67,-50.94 -38.4,-62.7 12.93,-12.92 21.16,-30.95 21.16,-50.54l0 -5.88zm-70.92 -42.71c23.51,0 42.71,19.2 42.71,42.71l0 5.88c0,23.12 -18.42,41.53 -40.75,42.32l-46.23 0 0 -90.91 44.27 0zm-44.27 219.03l0 -99.52 61.51 0c23.51,0 42.71,18.81 42.71,42.32l0 14.49c0,23.51 -19.2,42.71 -42.71,42.71l-61.51 0z"/>
            </g>
            <g>
                <polygon class="fil2" points="2056.61,0 2257.76,115.94 2458.9,231.88 2458.9,463.76 2458.9,695.64 2257.76,811.58 2056.61,927.52 1855.47,811.58 1654.32,695.64 1654.32,463.76 1654.32,231.88 1855.47,115.94 "/>
                <polygon class="fil1" points="2012.92,326.03 1984.71,326.03 1984.71,601.48 2144.18,601.48 2144.18,572.88 2012.92,572.88 "/>
            </g>
            <g>
                <polygon class="fil3" points="402.29,0 603.43,115.94 804.58,231.88 804.58,463.76 804.58,695.64 603.43,811.58 402.29,927.52 201.14,811.58 0,695.64 0,463.76 0,231.88 201.14,115.94 "/>
                <path class="fil1" d="M322.55 326.03l0 275.45 28.21 0 0 -115.19 53.68 0c42.71,0 77.58,-34.87 77.58,-77.58l0 -4.31c0,-42.71 -34.87,-78.37 -77.58,-78.37l-81.89 0zm28.21 132.05l0 -103.05 53.68 0c27.04,0 49.37,21.94 49.37,49.37l0 4.31c0,27.03 -22.33,49.37 -49.37,49.37l-53.68 0z"/>
            </g>
        </g>
    </g>
</svg>